<?xml version="1.0" encoding="utf-8"?>
<!-- Generator: Adobe Illustrator 24.0.0, SVG Export Plug-In . SVG Version: 6.00 Build 0)  -->
<svg version="1.1" id="Calque_1" xmlns="http://www.w3.org/2000/svg" xmlns:xlink="http://www.w3.org/1999/xlink" x="0px" y="0px"
	 viewBox="0 0 454.8 225.7" fill="#fff" style="enable-background:new 0 0 454.8 225.7;" xml:space="preserve">
<g id="surface1">
	<path d="M11.3,53.7V55H0v-1.3c1.2,0,2.2-0.3,3-1c0.7-0.7,1.2-1.8,1.3-3.4l1.6-43H5.8c0,0,0.1-0.1,0.1-0.3c0-1.5-0.3-2.6-0.9-3.4
		C4.4,1.8,3.6,1.4,2.6,1.4H1.9V0.1h7.4l21.2,50l20.2-50h7.8v1.3c-1.2,0-2.1,0.3-2.7,0.9c-0.6,0.6-1,1.7-1.1,3.1l1.9,43.3
		c0.1,1.7,0.5,3,1.2,3.8c0.7,0.8,1.7,1.2,3.1,1.2V55H48.7v-1.3h0.7c1,0,1.8-0.4,2.3-1.2c0.5-0.8,0.8-2,0.8-3.4v-0.3
		C52.3,41.1,52,33.6,51.7,26c-0.3-7.5-0.6-15.1-0.9-22.8L29.6,55.4h-1C25,47,21.5,38.7,17.9,30.4c-3.6-8.3-7.2-16.6-10.7-24.9
		l-1.6,43c0.1,1.6,0.6,2.9,1.4,3.8c0.8,0.9,2,1.4,3.4,1.4H11.3z"/>
	<path d="M90.5,4.9L77.3,37.2c1.1-0.3,2.4-0.5,3.7-0.5c2.1,0,4.1,0.3,6.1,1c2,0.7,4.1,1.5,6.2,2.3c2.1,0.8,4.3,1.6,6.6,2.4
		c2.3,0.7,4.7,1.1,7.2,1.2L90.5,4.9z M76.5,55h-11v-1.3c1.3,0,2.4-0.4,3.2-1.1s1.6-1.9,2.3-3.4L91.3,0h1.3h-0.1l21,48.8
		c0.7,1.6,1.5,2.8,2.4,3.6c0.9,0.9,2,1.3,3.3,1.3V55h-13v-1.3h0.8c0.9,0,1.6-0.2,2.1-0.7s0.8-1.1,0.8-2c0-0.3,0-0.6-0.1-1
		c-0.1-0.3-0.2-0.7-0.3-1.1s-0.4-1-0.7-1.6c-0.3-0.6-0.6-1.5-1.1-2.5c-2.7,0-5.2-0.4-7.5-1.2c-2.4-0.8-4.6-1.6-6.8-2.4
		c-2.2-0.8-4.3-1.6-6.3-2.3S83,37.8,81,37.8c-1.5,0-2.9,0.2-4.3,0.7c-1,2.4-1.8,4.3-2.4,5.7c-0.6,1.4-1,2.5-1.3,3.2
		s-0.5,1.3-0.6,1.7c-0.1,0.4-0.1,0.8-0.1,1.2c0,1.1,0.3,1.9,0.9,2.5c0.6,0.6,1.4,0.9,2.4,0.9h0.8V55z"/>
	<path d="M7.4,134.7c0.6,0.9,1.4,1.3,2.5,1.3h0.7v1.3H1.2V136c1.3,0,2.3-0.4,3.1-1.2c0.7-0.8,1.1-2,1.1-3.8V88.7
		c0-1.6-0.3-2.8-1-3.7c-0.6-0.9-1.5-1.3-2.5-1.3H1.2v-1.2h7.9L47,131.2V88.7c0-1.6-0.3-2.8-0.9-3.7c-0.6-0.9-1.5-1.3-2.5-1.3H43
		v-1.2h9.4v1.2c-1.3,0-2.3,0.4-3,1.2c-0.7,0.8-1,2.1-1,3.8v49.4h-1.4l-1.9-2.5L6.5,86.1v44.9C6.5,132.6,6.8,133.8,7.4,134.7"/>
	<path d="M76,87.3l-13.2,32.3c1.1-0.3,2.4-0.5,3.7-0.5c2.1,0,4.1,0.3,6.1,1c2,0.7,4.1,1.5,6.2,2.3c2.1,0.8,4.3,1.6,6.6,2.4
		c2.3,0.7,4.7,1.1,7.2,1.2L76,87.3z M62,137.3h-11V136c1.3,0,2.4-0.4,3.2-1.1c0.9-0.7,1.6-1.9,2.3-3.4l20.2-49.1h1.3H78l21,48.8
		c0.7,1.6,1.5,2.8,2.4,3.6c0.9,0.8,2,1.3,3.3,1.3v1.3h-13V136h0.8c0.9,0,1.6-0.2,2.1-0.7c0.5-0.5,0.8-1.1,0.8-2c0-0.3,0-0.6-0.1-1
		c-0.1-0.3-0.2-0.7-0.3-1.1c-0.2-0.4-0.4-1-0.7-1.6c-0.3-0.6-0.7-1.5-1.1-2.5c-2.7,0-5.2-0.4-7.5-1.2c-2.4-0.8-4.6-1.6-6.8-2.4
		s-4.3-1.6-6.3-2.3c-2-0.7-4.1-1.1-6.1-1.1c-1.5,0-2.9,0.2-4.3,0.7c-1,2.4-1.8,4.3-2.4,5.7c-0.6,1.4-1,2.5-1.3,3.2
		c-0.3,0.8-0.5,1.3-0.6,1.7c-0.1,0.4-0.1,0.8-0.1,1.2c0,1.1,0.3,1.9,0.9,2.5s1.4,0.9,2.4,0.9H62V137.3z"/>
	<path d="M116.8,134.7c0.6,0.9,1.5,1.3,2.5,1.3h0.7v1.3h-9.5V136c1.3,0,2.3-0.4,3.1-1.2c0.7-0.8,1.1-2,1.1-3.8V88.7
		c0-1.6-0.3-2.8-1-3.7c-0.6-0.9-1.5-1.3-2.5-1.3h-0.6v-1.2h7.9l37.9,48.8V88.7c0-1.6-0.3-2.8-0.9-3.7c-0.6-0.9-1.5-1.3-2.5-1.3h-0.6
		v-1.2h9.4v1.2c-1.3,0-2.3,0.4-3,1.2s-1,2.1-1,3.8v49.4h-1.4l-1.9-2.5l-38.6-49.5v44.9C115.8,132.6,116.1,133.8,116.8,134.7"/>
	<path d="M175.4,134.7c0.6,0.9,1.4,1.3,2.5,1.3h0.7v1.3h-9.5V136c1.3,0,2.3-0.4,3.1-1.2c0.7-0.8,1.1-2,1.1-3.8V88.7
		c0-1.6-0.3-2.8-1-3.7c-0.6-0.9-1.5-1.3-2.5-1.3h-0.6v-1.2h7.9l37.9,48.8V88.7c0-1.6-0.3-2.8-0.9-3.7c-0.6-0.9-1.5-1.3-2.5-1.3H211
		v-1.2h9.4v1.2c-1.3,0-2.3,0.4-3,1.2c-0.7,0.8-1,2.1-1,3.8v49.4h-1.4l-1.9-2.5l-38.6-49.5v44.9C174.5,132.6,174.8,133.8,175.4,134.7
		"/>
	<path d="M266.4,82.4h10v1.3c-2.3,0-4.6,1.6-6.7,4.9c-0.4,0.5-0.7,1-0.9,1.4c-0.2,0.4-0.5,0.9-0.9,1.5c-0.4,0.6-0.9,1.5-1.5,2.5
		c-0.6,1.1-1.5,2.5-2.6,4.4c-1.1,1.9-2.5,4.3-4.3,7.2c-1.7,2.9-3.9,6.6-6.5,10.9v14.4c0,1.5,0.3,2.7,1,3.6s1.5,1.4,2.5,1.4h0.6v1.3
		H245V136h0.6c1.1,0,1.9-0.5,2.5-1.4s1-2.1,1-3.6v-12.8l-16.7-29.6c-1.1-1.6-2.1-2.8-3-3.7c-1-0.8-2-1.3-3-1.3v-1.3h12.2v1.3h-0.7
		c-1.1,0-1.6,0.5-1.6,1.5c0,0.9,0.4,1.9,1.1,3.1l15.4,26.8l15-25.5c1-1.6,1.4-3,1.4-4c0-1.3-0.7-1.9-2.1-1.9h-0.5
		c-0.2,0-0.3-0.2-0.3-0.7V82.4z"/>
	<path d="M23,201.3c2.5,0,4.7-0.4,6.8-1.3c2-0.8,3.8-2,5.2-3.6c1.4-1.6,2.6-3.4,3.4-5.6c0.8-2.2,1.2-4.6,1.2-7.2
		c0-2.7-0.3-5.1-1-7.3c-0.6-2.2-1.5-4.1-2.7-5.6c-1.2-1.6-2.6-2.8-4.2-3.6c-1.6-0.9-3.4-1.3-5.4-1.3H9.5v35.5H23z M44.1,183.6
		c0,2.8-0.5,5.3-1.5,7.6c-1,2.3-2.5,4.3-4.3,5.9c-1.9,1.6-4.1,2.9-6.7,3.8c-2.6,0.9-5.4,1.3-8.5,1.3H9.5v11.1c0,1.5,0.3,2.7,1,3.6
		c0.6,0.9,1.5,1.4,2.5,1.4h0.7v1.2H1v-1.2h0.7c1.1,0,1.9-0.5,2.5-1.4c0.6-0.9,1-2.1,1-3.6V171c0-1.5-0.3-2.7-1-3.6
		c-0.6-0.9-1.5-1.4-2.5-1.4H1v-1.3h25.3c2.7,0,5.1,0.5,7.2,1.4c2.2,0.9,4,2.2,5.6,3.8c1.6,1.6,2.8,3.6,3.6,6
		C43.6,178.3,44.1,180.9,44.1,183.6"/>
	<path d="M64.7,169.6l-13.2,32.3c1.1-0.3,2.4-0.5,3.7-0.5c2.1,0,4.1,0.3,6.1,1c2,0.7,4.1,1.5,6.2,2.3s4.3,1.6,6.6,2.4
		c2.3,0.7,4.7,1.1,7.2,1.2L64.7,169.6z M50.7,219.7h-11v-1.3c1.3,0,2.4-0.4,3.2-1.1c0.9-0.7,1.6-1.9,2.3-3.4l20.2-49.1h1.3h-0.1
		l21,48.8c0.7,1.6,1.5,2.8,2.4,3.6c0.9,0.8,2,1.3,3.3,1.3v1.3h-13v-1.3h0.8c0.9,0,1.6-0.2,2.1-0.7c0.5-0.5,0.8-1.1,0.8-2
		c0-0.3,0-0.6-0.1-1c-0.1-0.3-0.2-0.7-0.3-1.1c-0.2-0.4-0.4-1-0.7-1.6c-0.3-0.6-0.6-1.5-1.1-2.5c-2.7,0-5.2-0.4-7.5-1.2
		s-4.6-1.6-6.8-2.4c-2.2-0.8-4.3-1.6-6.3-2.3c-2-0.7-4.1-1.1-6.1-1.1c-1.5,0-2.9,0.2-4.3,0.7c-1,2.4-1.8,4.3-2.4,5.7
		c-0.6,1.4-1,2.5-1.3,3.2c-0.3,0.8-0.5,1.3-0.6,1.7c-0.1,0.4-0.1,0.8-0.1,1.2c0,1.1,0.3,1.9,0.9,2.5s1.4,0.9,2.4,0.9h0.8V219.7z"/>
	<path d="M166.1,165.9c-1.1,0-1.9,0.3-2.5,0.9s-0.9,1.7-0.9,3.1v34.2c0,1.2,0.3,2.2,0.8,2.9c0.5,0.7,1.2,1.1,2.1,1.1h0.5v1.1h-10.5
		v-1.1c1.1,0,1.9-0.3,2.5-0.9c0.6-0.6,0.9-1.7,0.9-3.1v-34.2c0-1.2-0.3-2.2-0.8-2.9c-0.5-0.7-1.2-1.1-2.1-1.1h-0.6v-1.1h10.5V165.9z
		 M120.9,201.3c2.5,0,4.7-0.4,6.8-1.3c2-0.8,3.8-2,5.3-3.6c1.5-1.6,2.6-3.4,3.4-5.6c0.8-2.2,1.2-4.6,1.2-7.2c0-2.7-0.3-5.1-1-7.2
		s-1.5-4-2.7-5.6c-1.2-1.6-2.6-2.8-4.2-3.7c-1.6-0.9-3.5-1.3-5.4-1.3h-16.7v35.5H120.9z M174.5,219.1c-1.5,1-2.9,1.9-4.5,2.8
		c-1.5,0.9-3.1,1.6-4.6,2.2c-1.6,0.6-3.2,1.1-4.9,1.3c-1.7,0.3-3.4,0.3-5.2,0.1c-2.8-0.4-5.3-1.1-7.4-2.3c-2.2-1.2-4.1-2.6-5.8-4.2
		c-1.7-1.6-3.3-3.3-4.7-5c-1.4-1.8-2.7-3.5-3.9-5c-1.2-1.6-2.4-2.9-3.6-4.1c-1.2-1.2-2.4-1.9-3.7-2.2c-0.5-0.1-1.3-0.2-2.2-0.3
		c-0.9-0.1-2-0.1-3.2-0.1h-13.4v11.1c0,1.5,0.3,2.7,1,3.6c0.7,0.9,1.5,1.4,2.6,1.4h0.6v1.2H99v-1.2h0.6c1.1,0,2-0.5,2.6-1.4
		c0.6-0.9,1-2.1,1-3.6V171c0-1.5-0.3-2.7-1-3.6c-0.6-0.9-1.5-1.4-2.6-1.4H99v-1.3h25.2c2.7,0,5.1,0.5,7.3,1.4
		c2.2,0.9,4.1,2.2,5.6,3.8c1.6,1.6,2.8,3.6,3.6,6c0.9,2.3,1.3,4.9,1.3,7.7c0,2.2-0.3,4.3-1,6.2c-0.7,1.9-1.6,3.6-2.8,5.1
		c-1.2,1.5-2.7,2.8-4.4,3.9c-1.7,1.1-3.7,1.9-5.8,2.5c2.1,0.5,4,1.6,5.9,3.2c1.9,1.6,3.6,3.3,5.4,5.3c1.7,1.9,3.4,3.9,5.1,5.9
		c1.7,2,3.4,3.6,5.2,4.9c1.9,1.4,3.9,2.3,6,2.7c2.1,0.4,4.1,0.4,6.2,0.1c2.1-0.3,4.1-1,6.2-1.9c2.1-0.9,4.1-2.1,6.1-3.4L174.5,219.1
		z"/>
	<path d="M184.9,174.5c0,1.4,0.5,2.6,1.6,3.5c1.1,1,2.4,1.9,4.2,2.7c1.7,0.8,3.7,1.6,5.9,2.3c2.2,0.7,4.5,1.5,6.8,2.3
		c2.3,0.8,4.6,1.8,6.8,2.8c2.2,1,4.2,2.3,5.9,3.7c1.7,1.4,3.1,3.1,4.2,5c1.1,1.9,1.6,4.2,1.6,6.8c0,2.1-0.5,4.1-1.5,6
		c-1,2-2.4,3.7-4.1,5.3s-3.8,2.8-6.1,3.7c-2.3,0.9-4.8,1.4-7.5,1.4c-2.3,0-4.6-0.1-6.8-0.3c-2.2-0.2-4.3-0.4-6.3-0.8
		s-3.8-0.8-5.4-1.3c-1.6-0.5-3-1.1-4.1-1.7l-0.3-8h1.4l1,2.1c1.1,2.1,2.6,3.9,4.5,5.4s4.1,2.4,6.4,2.9c1.6,0.2,3.2,0.4,4.7,0.5
		c1.6,0.1,3.2,0.2,4.8,0.2c2.2,0,4.3-0.4,6.3-1.2c2-0.8,3.7-1.8,5.3-3.1c1.5-1.3,2.7-2.8,3.6-4.4c0.9-1.6,1.3-3.4,1.3-5.1
		c0-2.2-0.5-4.2-1.6-5.8c-1.1-1.6-2.5-3.1-4.2-4.4c-1.8-1.3-3.8-2.4-6-3.3s-4.5-1.9-6.8-2.7s-4.6-1.6-6.8-2.5
		c-2.2-0.8-4.2-1.7-6-2.7s-3.2-2.1-4.2-3.3s-1.6-2.7-1.6-4.3c0-2.2,0.5-4,1.5-5.6c1-1.5,2.3-2.7,3.9-3.6c1.6-0.9,3.5-1.6,5.5-2
		c2-0.4,4.1-0.6,6.2-0.6c1.6,0,3.3,0.1,5,0.3s3.3,0.5,4.8,0.9c1.6,0.4,3,0.8,4.4,1.3s2.5,1,3.5,1.6c-0.2,0.4-0.3,0.6-0.3,0.7
		l0.3-0.6l0.3,8.1h-1.4c-0.4-0.6-0.7-1.4-1-2.2c-0.3-0.8-0.6-1.5-1-2.2c-0.4-0.9-1-1.7-1.7-2.5c-0.7-0.8-1.6-1.5-2.8-2.2
		s-2.6-1.2-4.3-1.5c-1.7-0.4-3.7-0.6-6-0.6c-1.7,0-3.5,0.1-5.1,0.4c-1.7,0.3-3.2,0.8-4.5,1.4c-1.3,0.7-2.4,1.6-3.2,2.8
		C185.3,171.2,184.9,172.7,184.9,174.5"/>
	<path d="M240.7,219.7h-12.4v-1.3c1.3,0,2.3-0.4,3.1-1.2c0.7-0.8,1.1-2,1.1-3.8V171c0-1.5-0.3-2.7-0.9-3.6c-0.6-0.9-1.4-1.3-2.5-1.3
		h-0.7v-1.3h12.4v1.3c-1.3,0-2.3,0.4-3,1.2c-0.7,0.8-1,2-1,3.8v42.4c0,1.5,0.3,2.7,0.9,3.6c0.6,0.9,1.4,1.3,2.5,1.3h0.6V219.7z"/>
	<path d="M288.8,217.1c-0.3,1.6-0.5,2.4-0.6,2.6h-40.2v-1.3c1.3,0,2.3-0.4,3.1-1.2c0.7-0.8,1.1-2,1.1-3.8V171c0-1.5-0.3-2.7-1-3.6
		c-0.6-0.9-1.5-1.3-2.5-1.3h-0.6v-1.3h39.7c0,1.3,0,2.7,0.1,4.2c0.1,1.5,0.2,2.9,0.2,4.2h-1.1l-0.5-1.2c-0.9-1.9-2.4-3.4-4.3-4.6
		c-2-1.1-4.1-1.7-6.4-1.7h-19.5v20.8h17.2c2.1,0,3.8-0.3,5.3-0.9c1.5-0.6,2.4-1.5,2.7-2.5l0.3-0.6h1.1v9.7h-1.1l-0.3-0.7
		c-0.5-1.2-1.4-2.1-2.8-2.9c-1.4-0.7-3.2-1.1-5.2-1.1h-17.2v31h20.1c2.3,0,4.6-0.6,6.7-1.7c2.1-1.1,3.8-2.6,5-4.6l0.8-1.1h1
		C289.6,213.6,289.2,215.5,288.8,217.1"/>
	<path d="M302,217c0.6,0.9,1.4,1.3,2.5,1.3h0.7v1.3h-9.5v-1.3c1.3,0,2.3-0.4,3.1-1.2c0.7-0.8,1.1-2,1.1-3.8V171c0-1.6-0.3-2.8-1-3.7
		c-0.6-0.9-1.5-1.3-2.5-1.3h-0.6v-1.2h7.9l37.9,48.8V171c0-1.6-0.3-2.8-0.9-3.7c-0.6-0.9-1.5-1.3-2.5-1.3h-0.6v-1.2h9.4v1.2
		c-1.3,0-2.3,0.4-3,1.2s-1,2.1-1,3.8v49.4h-1.4l-1.9-2.5l-38.6-49.5v44.9C301.1,214.9,301.4,216.1,302,217"/>
	<path d="M360.7,217c0.6,0.9,1.5,1.3,2.5,1.3h0.7v1.3h-9.5v-1.3c1.3,0,2.3-0.4,3.1-1.2c0.7-0.8,1.1-2,1.1-3.8V171
		c0-1.6-0.3-2.8-1-3.7c-0.6-0.9-1.5-1.3-2.5-1.3h-0.6v-1.2h7.9l37.9,48.8V171c0-1.6-0.3-2.8-0.9-3.7c-0.6-0.9-1.5-1.3-2.5-1.3h-0.6
		v-1.2h9.4v1.2c-1.3,0-2.3,0.4-3,1.2s-1,2.1-1,3.8v49.4h-1.4l-1.9-2.5l-38.6-49.5v44.9C359.7,214.9,360,216.1,360.7,217"/>
	<path d="M453.7,217.1c-0.3,1.6-0.5,2.4-0.5,2.6h-40.2v-1.3c1.3,0,2.3-0.4,3.1-1.2c0.7-0.8,1.1-2,1.1-3.8V171c0-1.5-0.3-2.7-1-3.6
		c-0.6-0.9-1.5-1.3-2.5-1.3h-0.6v-1.3h39.7c0,1.3,0,2.7,0.1,4.2c0.1,1.5,0.2,2.9,0.2,4.2h-1.1l-0.5-1.2c-0.9-1.9-2.4-3.4-4.3-4.6
		c-2-1.1-4.1-1.7-6.4-1.7h-19.5v20.8h17.2c2.1,0,3.8-0.3,5.3-0.9c1.5-0.6,2.4-1.5,2.7-2.5l0.3-0.6h1.1v9.7h-1.1l-0.3-0.7
		c-0.5-1.2-1.4-2.1-2.8-2.9c-1.4-0.7-3.2-1.1-5.2-1.1h-17.2v31h20.1c2.3,0,4.6-0.6,6.7-1.7c2.1-1.1,3.8-2.6,5-4.6l0.8-1.1h1
		C454.4,213.6,454,215.5,453.7,217.1"/>
</g>
</svg>
