<?xml version="1.0" standalone="no"?>
<!DOCTYPE svg PUBLIC "-//W3C//DTD SVG 20010904//EN"
 "http://www.w3.org/TR/2001/REC-SVG-20010904/DTD/svg10.dtd">
<svg version="1.0" xmlns="http://www.w3.org/2000/svg"
 width="518.000000pt" height="237.000000pt" viewBox="0 0 518.000000 237.000000"
 preserveAspectRatio="xMidYMid meet">

<g transform="translate(0.000000,237.000000) scale(0.100000,-0.100000)"
fill="#fff" stroke="none">
<path d="M4604 2344 c-105 -17 -257 -66 -359 -115 -212 -100 -437 -287 -568
-471 -116 -162 -348 -708 -537 -1264 -76 -224 -150 -392 -176 -401 -18 -6 -34
53 -46 170 -23 229 50 1242 122 1681 17 103 29 194 26 202 -10 26 -35 14 -60
-28 -14 -24 -67 -149 -119 -278 -158 -394 -444 -1011 -586 -1265 -150 -267
-304 -460 -402 -505 -75 -34 -152 -23 -184 26 -50 77 -15 344 84 640 138 415
445 1022 682 1351 33 44 59 86 59 92 0 6 -9 11 -20 11 -68 0 -713 -771 -1095
-1310 -49 -69 -102 -143 -118 -165 l-29 -40 6 66 c17 177 191 781 340 1181 36
98 66 182 66 187 0 5 -6 14 -13 20 -11 8 -19 5 -36 -12 -33 -36 -139 -226
-268 -482 -425 -843 -746 -1311 -972 -1418 -136 -64 -245 -29 -309 99 -79 157
-65 368 34 516 19 28 37 55 40 59 2 4 0 11 -6 14 -6 4 -24 -8 -41 -26 -83 -89
-133 -282 -109 -419 20 -115 42 -170 88 -221 60 -67 116 -92 196 -87 168 10
338 168 596 553 152 228 373 611 445 773 15 34 30 61 32 58 2 -2 -26 -100 -62
-217 -80 -259 -100 -339 -121 -489 -17 -121 -14 -197 11 -256 26 -63 60 -43
130 76 59 101 197 301 313 455 197 261 573 722 529 648 -64 -108 -171 -302
-216 -392 -196 -392 -312 -828 -299 -1129 6 -160 50 -222 155 -222 69 1 120
28 208 111 132 126 214 247 388 576 107 202 154 299 334 698 142 315 144 319
138 255 -51 -589 -70 -1124 -45 -1330 16 -127 44 -213 81 -244 40 -34 62 -33
92 4 38 45 74 126 143 325 155 448 361 960 483 1202 73 146 189 282 356 423
108 90 126 102 252 164 185 92 336 130 528 130 100 1 115 -1 170 -27 113 -53
165 -131 165 -247 -1 -213 -115 -443 -325 -655 -224 -226 -492 -370 -802 -429
l-72 -14 18 37 c32 61 110 190 184 304 59 91 73 108 91 103 12 -2 33 -8 49
-11 43 -11 32 12 -14 27 l-41 14 109 145 c149 199 171 249 105 249 -20 0 -40
-13 -74 -47 -48 -51 -137 -167 -207 -270 l-42 -63 -90 0 c-241 0 -448 -127
-484 -297 -22 -108 76 -205 233 -229 23 -4 42 -12 42 -19 0 -7 -12 -39 -26
-71 -146 -329 -248 -764 -179 -764 16 0 21 16 30 105 13 115 87 338 192 577
36 81 70 152 78 158 7 6 55 17 106 26 111 18 320 85 439 142 383 183 662 473
734 763 20 82 21 229 1 296 -43 146 -190 234 -384 232 -47 -1 -123 -7 -167
-15z m-547 -938 c1 -1 -11 -21 -25 -45 -15 -24 -70 -123 -122 -220 l-95 -176
-70 1 c-55 0 -81 6 -123 28 -91 46 -114 114 -68 204 56 110 198 193 360 211
56 6 132 4 143 -3z"/>
</g>
</svg>
