<?xml version="1.0" standalone="no"?>
<!DOCTYPE svg PUBLIC "-//W3C//DTD SVG 20010904//EN"
 "http://www.w3.org/TR/2001/REC-SVG-20010904/DTD/svg10.dtd">
<svg version="1.0" xmlns="http://www.w3.org/2000/svg"
 width="456.000000pt" height="226.000000pt" viewBox="0 0 456.000000 226.000000"
 preserveAspectRatio="xMidYMid meet">

<g transform="translate(0.000000,226.000000) scale(0.100000,-0.100000)"
fill="#000000" stroke="none">
<path d="M39 2242 l23 -19 -7 -235 c-4 -130 -10 -240 -14 -245 -3 -5 -15 -15
-26 -21 -16 -9 -9 -11 45 -11 63 0 64 0 37 15 -15 8 -27 22 -28 32 -2 53 4
288 10 352 l6 74 104 -243 c57 -133 107 -239 112 -234 5 5 53 118 108 253 115
284 106 286 116 -31 6 -187 6 -187 -17 -203 -22 -15 -20 -16 47 -16 l70 0 -24
19 c-24 19 -25 22 -35 256 -9 218 -8 239 7 250 26 19 21 25 -22 25 l-39 0 -98
-245 c-65 -161 -102 -241 -107 -233 -5 7 -53 117 -106 243 l-97 230 -45 3 -44
2 24 -18z"/>
<path d="M903 2223 c-9 -21 -56 -135 -104 -253 -65 -158 -96 -221 -116 -237
l-28 -23 60 0 60 0 -24 19 -25 19 25 64 c22 56 28 63 55 66 17 2 77 -13 134
-32 57 -20 111 -36 121 -36 36 0 52 -63 22 -86 -16 -12 -9 -13 51 -14 l68 0
-29 28 c-19 18 -61 104 -133 274 -58 136 -109 248 -113 248 -4 0 -15 -17 -24
-37z m167 -390 c0 -11 -61 2 -130 27 -45 17 -98 30 -119 30 l-38 0 54 133 c30
72 59 143 65 157 8 22 18 6 89 -160 43 -101 79 -186 79 -187z"/>
<path d="M20 1435 c0 -3 9 -14 20 -25 19 -19 20 -33 20 -250 0 -217 -1 -231
-20 -250 -11 -11 -20 -22 -20 -25 0 -10 89 -5 95 5 3 6 -1 10 -9 10 -32 0 -36
37 -34 265 l3 225 199 -255 c109 -140 203 -255 207 -255 5 0 9 117 9 260 0
249 1 260 20 272 31 20 24 28 -24 28 -47 0 -69 -14 -36 -23 19 -5 20 -14 20
-232 l0 -227 -187 241 c-186 239 -188 241 -225 241 -21 0 -38 -2 -38 -5z"/>
<path d="M671 1188 c-103 -252 -121 -288 -148 -288 -8 0 -11 -4 -8 -10 8 -12
102 -13 109 -1 3 5 -4 11 -16 14 -17 5 -20 11 -15 39 3 18 13 50 21 71 15 35
19 37 61 37 24 0 75 -12 112 -26 38 -14 86 -29 108 -33 29 -5 43 -13 53 -33
14 -30 7 -58 -15 -58 -8 0 -11 -4 -8 -10 8 -13 122 -13 130 0 3 6 -1 10 -9 10
-24 0 -38 27 -152 291 -59 137 -110 249 -114 249 -3 0 -52 -114 -109 -252z
m175 10 c96 -223 90 -202 52 -194 -18 3 -63 18 -100 32 -37 14 -88 29 -112 32
l-44 7 61 152 c39 94 65 146 69 138 5 -7 38 -82 74 -167z"/>
<path d="M1110 1432 c0 -4 9 -13 20 -20 19 -12 20 -23 20 -252 0 -229 -1 -240
-20 -252 -31 -20 -24 -28 24 -28 47 0 69 14 36 23 -19 5 -20 14 -20 243 0 143
4 234 9 229 5 -6 93 -118 196 -250 103 -132 193 -241 201 -243 12 -3 14 40 14
263 0 258 1 267 20 272 33 9 11 23 -36 23 -49 0 -53 -4 -24 -28 20 -16 20 -26
18 -237 l-3 -220 -188 243 -188 242 -40 0 c-21 0 -39 -3 -39 -8z"/>
<path d="M1700 1435 c0 -3 9 -14 20 -25 19 -19 20 -33 20 -250 0 -217 -1 -231
-20 -250 -11 -11 -20 -22 -20 -25 0 -10 89 -5 95 5 3 6 -1 10 -9 10 -32 0 -36
37 -34 265 l3 225 199 -255 c109 -140 203 -255 207 -255 5 0 9 117 9 260 0
249 1 260 20 272 31 20 24 28 -24 28 -47 0 -69 -14 -36 -23 19 -5 20 -14 20
-232 l0 -227 -187 241 c-186 239 -188 241 -225 241 -21 0 -38 -2 -38 -5z"/>
<path d="M2270 1434 c0 -3 11 -15 24 -25 13 -10 65 -91 115 -180 86 -152 91
-164 91 -219 0 -69 -13 -110 -35 -110 -9 0 -13 -4 -10 -10 7 -12 125 -14 125
-2 0 4 -9 13 -20 20 -17 11 -20 23 -20 98 l0 86 93 155 c55 93 101 160 115
166 36 17 25 27 -28 27 -53 0 -60 -5 -34 -25 19 -14 23 -6 -78 -179 -39 -65
-74 -114 -78 -110 -16 17 -160 271 -160 283 0 6 7 11 16 11 8 0 12 5 9 10 -7
11 -125 14 -125 4z"/>
<path d="M1935 611 c-69 -18 -106 -54 -108 -105 -1 -50 31 -80 127 -116 190
-72 239 -108 239 -180 0 -52 -25 -88 -84 -118 -38 -20 -54 -23 -116 -19 -83 6
-125 26 -155 75 -11 17 -24 32 -29 32 -11 0 -12 -60 -1 -77 15 -23 131 -45
217 -41 69 2 88 7 124 31 78 52 100 148 50 218 -28 39 -74 65 -194 109 -119
43 -145 61 -145 101 0 53 47 79 143 79 75 0 119 -23 144 -75 9 -19 20 -35 25
-35 13 0 9 77 -4 87 -37 29 -176 49 -233 34z"/>
<path d="M25 598 c11 -6 23 -16 27 -22 4 -6 8 -114 8 -239 l0 -228 -26 -24
-27 -25 73 0 73 0 -27 25 c-23 21 -26 32 -26 85 l0 60 78 0 c137 0 218 36 253
114 42 93 5 206 -83 252 -35 18 -355 20 -323 2z m303 -18 c49 -30 76 -97 69
-173 -6 -66 -25 -99 -77 -134 -28 -20 -46 -23 -126 -23 l-94 0 0 175 0 175 98
0 c80 0 103 -4 130 -20z"/>
<path d="M643 573 c-8 -21 -53 -130 -100 -243 -91 -221 -106 -250 -128 -250
-8 0 -15 -4 -15 -10 0 -6 27 -10 61 -10 37 0 58 4 54 10 -3 5 -13 10 -21 10
-20 0 -18 49 6 104 18 43 22 46 57 46 21 0 83 -16 138 -35 55 -19 107 -35 116
-35 19 0 29 -20 29 -56 0 -15 -6 -24 -15 -24 -8 0 -15 -4 -15 -10 0 -6 28 -10
65 -10 37 0 65 4 65 10 0 6 -7 10 -16 10 -17 0 -55 78 -174 358 -40 94 -77
172 -82 172 -5 0 -16 -17 -25 -37z m91 -202 c42 -96 76 -178 76 -183 0 -15
-33 -8 -138 28 -57 20 -113 34 -123 31 -10 -3 -19 -2 -19 3 0 4 24 65 53 136
29 71 57 138 60 148 4 10 9 17 12 15 2 -3 38 -83 79 -178z"/>
<path d="M1007 598 c12 -6 24 -20 27 -32 3 -11 6 -119 6 -239 l0 -218 -26 -24
-27 -25 67 0 c69 0 80 7 46 28 -17 10 -20 23 -20 77 l0 65 102 0 102 0 40 -47
c23 -26 66 -73 96 -103 63 -64 122 -87 191 -76 47 7 139 51 139 66 0 6 -23 -1
-51 -15 -60 -31 -130 -35 -176 -12 -17 9 -61 49 -97 89 -36 40 -79 82 -95 93
l-30 19 37 21 c125 70 116 277 -15 331 -41 18 -352 19 -316 2z m300 -18 c42
-25 64 -70 70 -139 5 -69 -24 -134 -76 -168 -29 -20 -47 -23 -127 -23 l-94 0
0 175 0 175 98 0 c79 0 103 -4 129 -20z"/>
<path d="M1573 596 c15 -12 17 -34 17 -210 0 -166 -2 -198 -15 -202 -31 -12
-13 -24 34 -24 50 0 74 13 46 24 -13 4 -15 37 -15 205 0 180 2 201 18 210 13
8 3 10 -43 10 -52 0 -58 -1 -42 -13z"/>
<path d="M2308 594 c22 -15 22 -19 22 -249 0 -128 -3 -240 -6 -249 -3 -9 -12
-16 -20 -16 -8 0 -14 -4 -14 -10 0 -6 29 -10 68 -9 64 0 66 1 45 16 -23 15
-23 18 -23 259 0 240 0 243 22 258 21 15 19 16 -47 16 -66 0 -68 -1 -47 -16z"/>
<path d="M2497 598 c12 -6 24 -20 27 -32 3 -11 6 -119 6 -239 l0 -218 -26 -24
-27 -25 206 0 207 0 6 28 c3 15 8 35 11 45 6 24 -1 21 -35 -12 -38 -39 -87
-51 -204 -51 l-98 0 0 155 0 155 104 0 c88 0 107 -3 129 -20 14 -11 28 -20 31
-20 3 0 6 20 6 45 0 47 -9 56 -30 30 -10 -12 -37 -15 -126 -15 l-114 0 0 100
0 100 110 0 c122 0 153 -10 189 -57 l20 -28 1 48 0 47 -207 -1 c-152 0 -202
-3 -186 -11z"/>
<path d="M2978 594 c22 -15 22 -18 22 -261 0 -236 -1 -245 -20 -250 -37 -10
-20 -23 30 -23 28 0 50 5 50 10 0 6 -7 10 -15 10 -23 0 -26 31 -23 263 l3 219
199 -256 c109 -141 202 -256 207 -256 5 0 9 119 9 264 0 262 0 265 22 280 22
15 20 16 -31 16 -52 0 -53 0 -32 -17 21 -18 22 -24 19 -238 l-3 -220 -184 238
-184 237 -46 0 c-44 0 -45 -1 -23 -16z"/>
<path d="M3568 594 c22 -15 22 -19 22 -249 0 -128 -3 -240 -6 -249 -3 -9 -12
-16 -20 -16 -8 0 -14 -4 -14 -10 0 -5 23 -10 50 -10 50 0 67 13 30 23 -19 5
-20 14 -20 242 l0 237 23 -29 c13 -15 95 -120 182 -233 87 -113 168 -215 179
-228 l21 -24 5 266 c5 250 6 266 25 280 19 14 17 15 -29 16 l-50 0 22 -20 c21
-20 22 -27 22 -243 -1 -179 -3 -219 -13 -206 -7 9 -91 118 -187 242 l-175 226
-45 1 c-43 0 -44 0 -22 -16z"/>
<path d="M4148 594 c22 -15 22 -18 22 -258 0 -241 0 -244 -22 -259 -21 -15 -7
-16 183 -16 206 -1 207 -1 213 21 3 13 6 34 6 47 0 23 0 23 -28 -7 -37 -39
-86 -52 -204 -52 l-98 0 0 155 0 155 105 0 c98 0 108 -2 130 -24 29 -29 35
-24 35 29 0 52 -6 59 -31 34 -16 -16 -34 -19 -129 -19 l-110 0 0 100 0 100
110 0 c118 0 159 -12 180 -50 17 -32 30 -23 30 20 l0 40 -207 0 c-191 0 -206
-1 -185 -16z"/>
</g>
</svg>
